<svg version="1.1"  xmlns="http://www.w3.org/2000/svg" xmlns:xlink="http://www.w3.org/1999/xlink" x="0px" y="0px" width="53.374px" height="53.374px" viewBox="0 0 53.374 53.374" enable-background="new 0 0 53.374 53.374" xml:space="preserve"><path fill="#ffffff" d="M44.105,36.977l-10.288-10.29l10.295-10.295c0.954-0.953,1.478-2.22,1.478-3.568
	c0-1.348-0.527-2.614-1.479-3.566c-0.95-0.949-2.218-1.474-3.563-1.474c-1.348,0-2.613,0.524-3.565,1.478L26.686,19.556L16.39,9.261
	c-0.95-0.952-2.216-1.478-3.564-1.478c-1.346,0-2.612,0.524-3.565,1.478c-0.949,0.948-1.478,2.214-1.478,3.562
	c-0.002,1.348,0.523,2.615,1.478,3.568l10.296,10.295L9.26,36.983c-0.953,0.952-1.479,2.22-1.478,3.568
	c0,1.349,0.528,2.615,1.479,3.567c0.95,0.948,2.218,1.472,3.563,1.472c1.347,0,2.614-0.524,3.564-1.477l10.296-10.296l10.297,10.296
	c0.958,0.954,2.222,1.477,3.565,1.477c1.351,0,2.617-0.527,3.57-1.481c0.942-0.938,1.472-2.207,1.474-3.558
	C45.592,39.2,45.066,37.931,44.105,36.977z"/></svg>
