<svg xmlns:x="http://ns.adobe.com/Extensibility/1.0/" xmlns:i="http://ns.adobe.com/AdobeIllustrator/10.0/" xmlns:graph="http://ns.adobe.com/Graphs/1.0/" xmlns="http://www.w3.org/2000/svg" xmlns:xlink="http://www.w3.org/1999/xlink" version="1.1" x="0px" y="0px" viewBox="0 0 100 125" style="enable-background:new 0 0 100 100;" xml:space="preserve"><path fill="#ca385e" d="M82.1,11.4h-21c0-4.6-3.8-8.4-8.4-8.4h-5.6c-4.6,0-8.4,3.8-8.4,8.4h-21c-4.6,0-8.4,3.8-8.4,8.4V21c0,0.9,0.7,1.6,1.6,1.6     h77.8c0.9,0,1.6-0.7,1.6-1.6v-1.2C90.5,15.2,86.8,11.4,82.1,11.4z"/><path  fill="#ca385e" d="M16.5,89.6c0,4.6,3.8,8.4,8.4,8.4h50.3c4.6,0,8.4-3.8,8.4-8.4V28.2H16.5V89.6z M57.4,47.1c0-2.1,1.7-3.8,3.8-3.8     c2.1,0,3.8,1.7,3.8,3.8v31.9c0,2.1-1.7,3.8-3.8,3.8c-2.1,0-3.8-1.7-3.8-3.8V47.1z M35.1,47.1c0-2.1,1.7-3.8,3.8-3.8     c2.1,0,3.8,1.7,3.8,3.8v31.9c0,2.1-1.7,3.8-3.8,3.8c-2.1,0-3.8-1.7-3.8-3.8V47.1z"/></svg>